<svg id="b708bead-191d-45be-b1f9-8a61823ede1e" data-name="Layer 1" xmlns="http://www.w3.org/2000/svg" xmlns:xlink="http://www.w3.org/1999/xlink" width="865.76" height="682.89" viewBox="0 0 865.76 682.89"><defs><clipPath id="a267b552-beef-4ce8-91c1-67784e1ae22c"><path id="e5bcde32-1722-4388-b853-06b5bbf4fa6e" data-name="SVGID" d="M139,393.9s-10,3.41-8.34,15.75c.86,6.16,3.2,22.06,5.52,31.32s6.17,21.59,9.77,22.11,59.66-20.32,59.66-20.32,9.27,1,11.58-.25a17.07,17.07,0,0,0,5.4-6.17c.77-1.54-7.46-3.35-9.52-3.35s-9.81,4.37-11.08,4.84-45,6.17-46,6.17-3.88-25.2-6.17-33.43c-3.08-11.06-7-13.38-7-13.38" fill="none"/></clipPath></defs><rect x="161.98" y="62.88" width="417.41" height="565.63" rx="21.6" fill="#bcbec0"/><rect x="187.57" y="89.52" width="361.89" height="505.83" fill="#fff"/><rect x="224.43" y="148.16" width="44.48" height="44.48" fill="#bcbec0"/><rect x="224.43" y="236.5" width="44.48" height="44.48" fill="#bcbec0"/><rect x="313.38" y="155.01" width="218.72" height="2.13" fill="#ccc"/><rect x="313.38" y="183.65" width="211.41" height="2.13" fill="#ccc"/><rect x="359.08" y="169.33" width="146.22" height="2.13" fill="#ccc"/><rect x="313.38" y="169.33" width="39.6" height="2.13" fill="#ccc"/><rect x="313.38" y="241.22" width="218.72" height="2.13" fill="#ccc"/><rect x="313.38" y="269.86" width="211.41" height="2.13" fill="#ccc"/><rect x="368.52" y="255.54" width="78.29" height="2.13" fill="#ccc"/><rect x="458.69" y="255.54" width="46.61" height="2.13" fill="#ccc"/><rect x="313.38" y="255.54" width="39.6" height="2.13" fill="#ccc"/><path d="M231,153s14,11,15.69,17.37l30.16-33.82s-12.42,40.11-25.37,44.8a6.15,6.15,0,0,1-4.52-.24C243,179.45,235,173.53,231,153Z" fill="#d1d3d4"/><path d="M231,242.25s14,11,15.69,17.37l30.16-33.82s-12.42,40.11-25.37,44.8a6.15,6.15,0,0,1-4.52-.24C243,268.67,235,262.74,231,242.25Z" fill="#d1d3d4"/><rect x="224.43" y="323.15" width="44.48" height="44.48" fill="#bcbec0"/><path d="M231,328.9s14,11,15.69,17.37l30.16-33.82s-12.42,40.11-25.37,44.8a6.15,6.15,0,0,1-4.52-.24C243,355.32,235,349.39,231,328.9Z" fill="#d1d3d4"/><rect x="224.43" y="414.19" width="44.48" height="44.48" fill="#bcbec0"/><rect x="224.43" y="507.4" width="44.48" height="44.48" fill="#bcbec0"/><path d="M231,419.94s14,11,15.69,17.37l30.16-33.82s-12.42,40.11-25.37,44.8a6.15,6.15,0,0,1-4.52-.24C243,446.35,235,440.43,231,419.94Z" fill="#d1d3d4"/><rect x="240.4" y="531.22" width="10.51" height="10.51" fill="#d1d3d4"/><path d="M240.4,503.05h-9.29s-1.82-16.77,15.85-16.44a16.88,16.88,0,0,1,10.8,3.92c3.55,3.07,6.64,8.39,2.66,16.86a25.25,25.25,0,0,1-3.85,5.84c-1.41,1.63-4,5.27-5.66,11.75H240.4s-.71-7.78,8.52-15.94a10.57,10.57,0,0,0,3.44-5.66c.66-3.16.24-7.11-5.69-7.64C246.67,495.74,241.69,495.51,240.4,503.05Z" fill="#d1d3d4"/><rect x="313.38" y="329.26" width="61.53" height="2.13" fill="#ccc"/><rect x="313.38" y="344.63" width="39.6" height="2.13" fill="#ccc"/><rect x="365.02" y="344.63" width="147.59" height="2.13" fill="#ccc"/><rect x="314.52" y="359.99" width="210.27" height="2.13" fill="#ccc"/><rect x="314.52" y="419.4" width="160.31" height="2.13" fill="#ccc"/><rect x="314.52" y="512.64" width="218.8" height="2.13" fill="#ccc"/><rect x="314.52" y="527.11" width="38.46" height="2.13" fill="#ccc"/><rect x="365.02" y="527.11" width="137.23" height="2.13" fill="#ccc"/><rect x="314.52" y="540.67" width="215.14" height="2.13" fill="#ccc"/><rect x="367.26" y="568.69" width="153.26" height="2.13" fill="#ccc"/><rect x="435.97" y="575.39" width="84.55" height="2.13" fill="#ccc"/><rect x="324.27" y="433.71" width="160.31" height="2.13" fill="#ccc"/><rect x="314.52" y="448.03" width="29.62" height="2.13" fill="#ccc"/><rect x="362.12" y="447.55" width="133.43" height="2.13" fill="#ccc"/><rect x="488.77" y="419.4" width="40.9" height="2.13" fill="#ccc"/><rect x="388.32" y="329.26" width="107.23" height="2.13" fill="#ccc"/><polygon points="520.82 450.47 524.96 470.78 539.6 467.1 534.25 446.51 520.82 450.47" fill="#bcbec0"/><path d="M543.18,594l-20.94-118.5,22.16-4.69,29.22,116.7a15.57,15.57,0,0,1-12.68,19.2h0A15.57,15.57,0,0,1,543.18,594Z" fill="#d1d3d4"/><path d="M708.27,247.93a37.44,37.44,0,1,0-43.48,36.94l6.05,17.85,9.39-18.55A37.43,37.43,0,0,0,708.27,247.93Z" fill="#ccc"/><path d="M633.4,292.53a44,44,0,1,0-51.08,43.39l7.11,21,11-21.78A44,44,0,0,0,633.4,292.53Z" fill="#ccc"/><rect x="582.36" y="312.5" width="10.28" height="10.28" fill="#fff"/><path d="M592.65,307.48a21.82,21.82,0,0,1,4.62-9.72A25.35,25.35,0,0,0,603.84,281h0a13.71,13.71,0,0,0-13.71-13.71h0a16.9,16.9,0,0,0-16.9,16.9h9.13s5.94-11,10.29-1.37c0,0,1.84,3.36-1.8,8.06a15,15,0,0,1-3.15,3c-1.68,1.22-5.34,4.87-5.34,13.66Z" fill="#fff"/><path d="M657.56,659.31s1.86,11.32,0,16.62H620.09s-1.59-4,0-6.46,13.46-3.94,17.16-7.31A64.1,64.1,0,0,0,644.9,653Z" fill="#0071f2"/><polygon points="619.39 673.94 658.06 673.94 658.38 675.92 619.39 675.92 619.39 673.94" fill="#2f2e41"/><path d="M721.09,675.93s1.43-5.52-.25-7.55c-3-3.67.36-6.75-2.68-8l-1.27,1.48c-.25-1.49.46-6.07-5.19-6.66-6.81-.73-6.94,4.25-7.32,5.88l.12-2.28c-2.92,0-1.4,2.91-5.82,7.66a12.62,12.62,0,0,0-3.19,9.5Z" fill="#0071f2"/><path d="M745.8,466.17c3.15,1.84,11.28,19.15,6.54,53.49S733.4,621.17,731,631.45s-10.72,35-10.72,35-3.18-10.73-18.46-5a.78.78,0,0,1-1-.45.82.82,0,0,1,0-.44l3.38-17.5s.23-12.81,1.33-16c4.15-12.08,6.23-58.78,7.6-65.31s-1.33-25.26-1.33-25.26S692.6,582.29,692,586.83s-12.33,23.25-12.33,23.25l-2.07,17.24S662,654,659.28,662l-18.53-4.06.52-13.18,5-1.72L655,613a267.64,267.64,0,0,1,10.15-30.57C669.26,572,681,531.67,681,531.67c3.63-3.95,7-25.79,7-25.79l5.59-27.52Z" fill="#2f2e41"/><path d="M668,393.35,629.9,422l-24.48-38.67-9.17,1.17s18.26,49.88,28.36,54.85,48.2-22.61,48.2-22.61" fill="#f9b499"/><path d="M676.36,387.61s-11,3.85-18.42,10.25-19.19,16-19.19,16,6.64,16,14.36,22.46l16.46-6.58Z" fill="#0071f2"/><path d="M669.53,429.72C675.94,445.4,686,465,686,465l4.43,21.85s16.65,12.69,35.75,7.36c22.33-6.23,26-20.37,26-20.37l-8.51-17.12c-2.92-16.46-6.73-55.26-19.84-64.18s-35.61-9.64-44.67-6c-8.08,3.2-12.56,5.64-14.76,8.59" fill="#0071f2"/><path d="M700.31,389.54s-4.91,9.12-13.65,8.23c-7.26-.72-7-6.57-7-6.57a6.85,6.85,0,0,0,2.18-3.33,6,6,0,0,0,.23-2.15c-.12-1.81-1-4-3.53-6.55l-.12-.12a7.55,7.55,0,0,1-1.28-1.64c-4-7.06,10-15,20.54-9.17C697.61,368.28,689.42,374.6,700.31,389.54Z" fill="#f9b499"/><path d="M684.89,377.16s-.2,5.49-2.87,8.61c-.12-1.81-1-4-3.53-6.55A6.77,6.77,0,0,1,684.89,377.16Z" fill="#f4a289"/><path d="M699.27,361.5c4-17-4.25-24.31-9.62-26.55-8.61-3.53-19.8,2.05-22.34,11.46s-.26,11.59-.38,15.44c-.08,2.71-1.75,4,.1,10.82,1.17,4.48,3.22,11.66,10.88,10.38a25.51,25.51,0,0,0,6.76-2.21" fill="#f9b499"/><path d="M699.29,339.84s-.52-9.09-17.45-8.8-21.93,13.43-13.33,17,13.92,2,13.92,2a14.58,14.58,0,0,1-6-4.14,43.06,43.06,0,0,0,11,4.48s-1.93,2.52,0,6.76,1,6,1,6,7.77,2.2,6.47,10.58c0,0,7.14-.14,10-16.58S699.29,339.84,699.29,339.84Z" fill="#2f2e41"/><path d="M689.65,364.47s3.1-5.79,6.36-4.38,1,8.33-1.84,10.58-4.52,0-4.52,0" fill="#f9b499"/><path d="M726,424.94s22.69,24.53,28.21,23.61,8.48-10,7.26-12.47-21.62-26.27-21.62-26.27Z" fill="#f9b499"/><path d="M717.52,401.89c-2.21,7.7-3.13,16,.55,22.44,1.84,5.53,12.58,10.79,16.26,15.4,11.55-2.82,16.46-17.49,16.46-17.49s-6.64-9.49-13.38-19.48-20.09-13.7-20.09-13.7" fill="#0071f2"/><path d="M605.67,383.8s-3.78-8.85-6.13-11.61-4.7-4.71-5.36-4.8c-1.64-.19-7,2.76-7,2.76s0,1.67,2.88,1.43c0,0-4.16,2.59-4.36,4.63s2.35,4.91,2.89,6a1,1,0,0,0,1.2.67,1,1,0,0,0,.3-.14s4.5,6.11,8.83,6.54" fill="#f9b499"/><polygon points="695.47 673.94 721.65 673.94 721.09 675.92 695.49 675.92 695.47 673.94" fill="#2f2e41"/><path d="M726.34,506l40.72-4.76c3-.48,5.32-3.87,5.63-8.14l2.25-41.18c.28-3.41-1.42-6.51-3.8-6.92a3.11,3.11,0,0,0-1,0l-40.72,4.69c-3,.48-5.33,3.87-5.63,8.14L721.53,499c-.32,3.4,1.35,6.53,3.73,7A3,3,0,0,0,726.34,506Z" fill="#bcbec0"/><path d="M757.84,431.38c4.21,4.05,6.38,7.21,6.08,20.36s-2.69,32.14-4.25,45.07l-11.18,1.71s1.75-20.22,0-33.53c-1.9-14.53-.4-22.67,1.36-23.72" fill="#f9b499"/><path d="M749.13,487.26c-.24,3.77-7.12,4.92-7.62,7.29-.17.77-2.54,6-2.54,6a17,17,0,0,0,.32,4.45c.58,2,2.41.85,2.41.85l.59,1.43c.92,2.36,2.66.18,5.63,1.64s4.39-.47,5.53,0,4.87-.69,5.58-2.09-.41-7.59.64-10,1.09-7.44,1.09-9.5" fill="#f9b499"/><path d="M600.81,384.13s-6.07-2.71-5.88-7.05a8,8,0,0,0-.82-3.19s-5.88-1.4-5.06-3.74l8.14.86a14,14,0,0,1,5.82,7.06" fill="#f9b499"/><path d="M169,515.41s-1.78,37.49-4.83,46.78-5.33,77.57-5.47,80.92,9.06,13.64,13.22,15.68,2.38,2.82-2,3.44-9.5.29-11.92-3.18-7.59-4.14-7.59-4.14l-.22,8-1.45.08-1.74-9.8a10.26,10.26,0,0,1,.67-6.66c1.58-3.79-.37-7-1.21-19.74s-4.91-33.16-4.21-43.14,5.71-24,5.16-32.29-.9-29.47-.9-29.47Z" fill="#f9b499"/><path d="M147,653.13a10,10,0,0,1,.13-5.06c2.53,3.31,9.26,7.59,14.41,9.11a19.93,19.93,0,0,0,8.68.74c.62.36,1.19.66,1.67.9,4.16,2,2.38,2.82-2,3.44s-9.5.29-11.92-3.19-7.59-4.13-7.59-4.13l-.22,7.95-1.45.09Z" fill="#0071f2"/><path d="M153.48,513.85s-1.93,40-5.24,50.06S142,648,141.91,651.6s9.56,16.87,14.08,19.08,2.53,3.06-2.14,3.79-10.32.32-12.95-3.46a28,28,0,0,0-7.58-6.68l-.23,8.64-1.58.1-1.89-10.66a11.24,11.24,0,0,1,.71-7.23c1.72-4.06-.3-7.79-1.26-21.66s-7.22-39.2-6.44-50,6.17-22.54,5.58-31.48-4.38-35.4-4.38-35.4Z" fill="#f9b499"/><path d="M129.55,662.35a10.63,10.63,0,0,1,.14-5.54c2.7,3.6,9.42,10.42,15,12.09a21.65,21.65,0,0,0,9.43.81c.68.38,1.26.72,1.82,1,4.51,2.21,2.53,3.06-2.14,3.79s-10.31.32-12.94-3.46a28.18,28.18,0,0,0-7.59-6.68l-.23,8.64-1.58.1Z" fill="#0071f2"/><path d="M188.76,371.11s4.21,6.32,11.46-1.2,0-19.91-10.86-29.57-28.35-13.91-38.3,2.72-8.45,26.85-13.91,35.6-28.63,32.26-37.62,52.77-1.26,44.35,22.62,48.27,39.2-28.05,38-42.22,7.24-44.35,11.47-51.59S188.76,371.11,188.76,371.11Z" fill="#2f2e41"/><path d="M188.76,371.11s4.21,6.32,11.46-1.2,0-19.91-10.86-29.57-28.35-13.91-38.3,2.72-8.45,26.85-13.91,35.6-28.63,32.26-37.62,52.77-1.26,44.35,22.62,48.27,39.2-28.05,38-42.22,7.24-44.35,11.47-51.59S188.76,371.11,188.76,371.11Z" fill="#2f2e41"/><path d="M190.71,349.9s-8,4.59-24.63,7.45-26.93,16-26.93,16" fill="none" stroke="#fff" stroke-linecap="round" stroke-linejoin="round"/><path d="M109.92,474.8s-14.89-8.58-4.57-29.22c13.91-27.82,57.86-75.05,57.86-75.05" fill="none" stroke="#fff" stroke-linecap="round" stroke-linejoin="round"/><path d="M219.89,502.32c-1.26-3.25-6.62-8.75-7.49-10s-16.52-39.19-16.52-39.19-1.12-22.67-1.52-34c-.26-8.06-.75-18.06-2.45-21.75a11.44,11.44,0,0,0-1.11-2.28V395h0c-3.1-4.81-9.7-8.05-15.25-9.43-7.21-1.81-11.32-.77-11.32-.77s-12.64,1.26-23.15,6.94-10.55,18.51-9,27.82S138,448.14,138,448.91s-14.15,14.67-21.35,31.89,3.09,72.64,3.09,72.64,6.69,4.37,25.72,4.37S175,549.89,175,549.89s6.69-51.09,5.4-70.37a283.55,283.55,0,0,0-3.09-29.08s.81-1.14,1.94-2.88a27.12,27.12,0,0,0,5.07,13c3.44,4.36,23.2,32.43,23.2,32.43a37.53,37.53,0,0,1,1,5.86c.25,3.07,3.09,6.46,3.09,6.46s-.77,6.5,0,6.95,1.86-2.46,1.86-2.46-1,3.94.82,3.79,1.95-1.44,1.95-1.44-.5,3.39.76,3a4.52,4.52,0,0,0,2.16-2s1.82,3.47,2.41,1.1S221.18,505.59,219.89,502.32Z" fill="#f9b499"/><path d="M195.88,453.22s-1.12-22.67-1.52-34c-.26-8.05-.75-18.05-2.45-21.75a11.36,11.36,0,0,0-1.11-2.27v-.1h0c-3.1-4.82-9.7-8.06-15.25-9.44-7.21-1.8-11.32-.77-11.32-.77s-12.64,1.27-23.15,6.94-10.55,18.52-9,27.82S138,448.2,138,449s-14.15,14.67-21.35,31.89,3.09,72.64,3.09,72.64,6.69,4.38,25.72,4.38S175,550,175,550s6.69-51.08,5.4-70.37a283.84,283.84,0,0,0-3.09-29.08s.81-1.14,1.94-2.88a27.21,27.21,0,0,0,5.07,13c.86,1.09,2.72,3.64,5.06,6.87a22.05,22.05,0,0,1,10-5.6Z" fill="#0071f2"/><path d="M211.69,499.65a5.59,5.59,0,0,0,2.12,4l1.89,1.14s1.39,7.58,3.35,6.43.92-7.81-1.43-11.49" fill="#f9b499"/><path d="M163.13,374.09s.27,7-2,10.55S158,389.78,158,395.18s8.67,25.29,12.78,23,1.36-15.79,1.87-20.42.52-6.95.52-6.95S165.71,370.82,163.13,374.09Z" fill="#f9b499"/><path d="M209.88,424.29,219.56,441l2.53,1.26-.51-2.83-9.75-16.35a1.17,1.17,0,0,0-1.52-.44h0a1.15,1.15,0,0,0-.47,1.57A.43.43,0,0,0,209.88,424.29Z" fill="#2f2e41"/><path d="M139,393.9s-10,3.41-8.34,15.75c.86,6.16,3.2,22.06,5.52,31.32s6.17,21.59,9.77,22.11,59.66-20.32,59.66-20.32,9.27,1,11.58-.25a17.07,17.07,0,0,0,5.4-6.17c.77-1.54-7.46-3.35-9.52-3.35s-9.81,4.37-11.08,4.84-45,6.17-46,6.17-3.88-25.2-6.17-33.43c-3.08-11.06-7-13.38-7-13.38" fill="#0071f2"/><g opacity="0.48"><g clip-path="url(#a267b552-beef-4ce8-91c1-67784e1ae22c)"><path d="M151.51,456.58c-6.55-1.26-3.27-6.14-1.64-9s-6.08,2.9-6.08,1.63-5.73-28.26-6.15-36.87a13.48,13.48,0,0,1,7-12.29l-.48-1.64a6.4,6.4,0,0,0-1.27-1.17l-3.79-3.34s-10,3.41-8.33,15.75c.86,6.16,3.2,22.06,5.51,31.32s6.17,21.59,9.77,22.11c1.67.24,14.75-4.16,28.24-8.92C165.94,455.66,155.33,457.3,151.51,456.58Z" fill="#0071f2"/><path d="M151.51,456.58c-6.55-1.26-3.27-6.14-1.64-9s-6.08,2.9-6.08,1.63-5.73-28.26-6.15-36.87a13.48,13.48,0,0,1,7-12.29l-.48-1.64a6.4,6.4,0,0,0-1.27-1.17l-3.79-3.34s-10,3.41-8.33,15.75c.86,6.16,3.2,22.06,5.51,31.32s6.17,21.59,9.77,22.11c1.67.24,14.75-4.16,28.24-8.92C165.94,455.66,155.33,457.3,151.51,456.58Z" fill="#fff" opacity="0.5" style="isolation:isolate"/></g></g><path d="M213,433c-2.05,0-9.78,4.37-11.05,4.89-.78.31-16.44,2.42-29.36,4.1-.51,3.21-.55,8.1,2.78,11.73,15-5.32,30.17-10.95,30.17-10.95s9.27,1,11.58-.25a17.07,17.07,0,0,0,5.4-6.17C223.32,434.8,215.09,433,213,433Z" fill="#f9b499"/><rect x="646.11" y="239.62" width="13.48" height="13.48" fill="#fff"/><rect x="664.1" y="239.62" width="13.48" height="13.48" fill="#fff"/><rect x="683.29" y="239.62" width="13.48" height="13.48" fill="#fff"/><path d="M638.69,163a31.9,31.9,0,1,0-37.06,31.48l5.16,15.21,8-15.8A31.91,31.91,0,0,0,638.69,163Z" fill="#ccc"/><rect x="601.78" y="136.81" width="6.63" height="35.41" fill="#fff"/><rect x="601.78" y="176.79" width="6.63" height="7.92" fill="#fff"/><path d="M300.54,34.23H438.93a23.71,23.71,0,0,1,23.71,23.71V97.29a0,0,0,0,1,0,0H276.83a0,0,0,0,1,0,0V57.95A23.71,23.71,0,0,1,300.54,34.23Z" fill="#bcbec0"/><circle cx="369.97" cy="33.7" r="26.73" fill="#bcbec0"/><circle cx="368.82" cy="32.56" r="10.51" fill="#fff"/><rect x="305.46" y="65.76" width="127.33" height="12.34" rx="5.79" fill="#d1d3d4"/><circle cx="513.49" cy="391.44" r="62.48" fill="#ccc"/><circle cx="513.49" cy="391.44" r="62.48" opacity="0.2"/><circle cx="513.49" cy="391.44" r="55.87" fill="#ccc"/><path d="M520,470.24l23.35-5.57a3.68,3.68,0,0,1,4.49,3h0a3.68,3.68,0,0,1-2.8,4.19l-23.39,5.41a3.61,3.61,0,0,1-4.33-2.74h0A3.61,3.61,0,0,1,520,470.24Z" fill="#bcbec0"/><path d="M162,382.74a16.69,16.69,0,0,0,1-4.59s4.82,9.67,8,14.16C171,392.31,164,387,162,382.74Z" fill="#f4a48e"/><path d="M163.49,366s-.52-5.61-3.8-4.08-3.31,8.42-1.53,10.2a5.92,5.92,0,0,0,3.8,1.78,22.93,22.93,0,0,0,2.8,9.7c2.53,4.07,6.88,12.24,12,10.71S191,379.48,193.07,373.1a100.31,100.31,0,0,0,3.06-16.32s-11.22,5.06-19.13,6.12A70.29,70.29,0,0,0,163.49,366Z" fill="#f9b499"/></svg>