<svg width="60" height="61" viewBox="0 0 60 61" fill="none" xmlns="http://www.w3.org/2000/svg">
<path d="M32.875 0C34.1486 1.04372 34.9974 2.28131 36.1672 3.09928C43.0939 7.94257 50.1647 12.6002 57.015 17.5384C58.4598 18.5799 60.0583 20.5619 59.9984 22.0522C59.94 23.5039 58.0927 25.637 56.5807 26.0862C54.944 26.5724 52.7868 25.4572 50.6488 24.9956C50.6488 26.7622 50.6488 28.814 50.6488 31.0653C44.7814 30.9069 40.2386 33.4104 36.0649 36.6337C35.8239 36.3423 35.6504 36.2258 35.6198 36.0816C35.2194 34.1958 35.3271 31.0038 34.3585 30.6721C31.8788 29.8229 28.9072 30.0443 26.1621 30.2334C24.4264 30.3529 24.0381 31.8024 24.0623 33.4471C24.154 39.671 24.0992 45.8968 24.0992 52.4786C20.6029 52.4786 17.3115 52.6701 14.0572 52.4203C11.2637 52.2058 9.04653 48.8373 9.02566 45.2199C8.98636 38.4057 9.01432 31.5911 9.01432 24.3431C5.93718 26.8232 3.04757 27.3241 0.1282 24.632C-0.0391081 23.0592 -0.0391081 21.3108 0.107475 19.488C8.63476 13.5118 17.0238 7.62071 25.3763 1.68262C25.9013 1.3094 26.1409 0.569375 26.5133 0C28.5418 0 30.5702 0 32.875 0Z" fill="#0071F2"/>
<path d="M56.7208 60.3467H34.3344V53.983H56.7208V60.3467ZM51.4367 48.5853H34.2776V42.6762H51.4367V48.5853ZM45.1867 39.0967L45.6412 51.0285C45.6886 52.3921 45.3287 53.4622 44.5617 54.2387C43.8041 55.0058 42.5352 55.716 40.7549 56.3694L36.664 53.983C36.9765 53.8315 37.2085 53.6611 37.36 53.4717C37.521 53.2728 37.6251 53.0266 37.6725 52.733C37.7293 52.43 37.753 52.0512 37.7435 51.5967L37.289 39.0967C37.2227 37.3921 37.5683 35.9243 38.3259 34.6933C39.093 33.4622 40.1914 32.5152 41.6214 31.8524C43.0608 31.1895 44.7606 30.858 46.7208 30.858C48.2928 30.858 49.6706 31.038 50.8543 31.3978C52.0475 31.7577 53.056 32.2927 53.8799 33.0029C54.7037 33.7037 55.3382 34.5654 55.7833 35.5882C56.2378 36.6014 56.5125 37.7709 56.6072 39.0967L49.2208 39.4376C49.1734 38.7558 49.0409 38.2397 48.8231 37.8893C48.6053 37.5389 48.3212 37.3022 47.9708 37.1791C47.6204 37.056 47.2227 36.9944 46.7776 36.9944C46.3894 36.9944 46.0769 37.0749 45.8401 37.2359C45.6034 37.3969 45.4329 37.6336 45.3287 37.9461C45.2246 38.2586 45.1772 38.6421 45.1867 39.0967Z" fill="#0071F2"/>
<path d="M56.7208 60.3467V61.3467H57.7208V60.3467H56.7208ZM34.3344 60.3467H33.3344V61.3467H34.3344V60.3467ZM34.3344 53.983V52.983H33.3344V53.983H34.3344ZM56.7208 53.983H57.7208V52.983H56.7208V53.983ZM51.4367 48.5853V49.5853H52.4367V48.5853H51.4367ZM34.2776 48.5853H33.2776V49.5853H34.2776V48.5853ZM34.2776 42.6762V41.6762H33.2776V42.6762H34.2776ZM51.4367 42.6762H52.4367V41.6762H51.4367V42.6762ZM45.1867 39.0967L44.1869 39.1175L44.1871 39.1261L44.1874 39.1347L45.1867 39.0967ZM45.6412 51.0285L46.6406 50.9938L46.6405 50.9904L45.6412 51.0285ZM44.5617 54.2387L43.8503 53.536L43.8502 53.536L44.5617 54.2387ZM40.7549 56.3694L40.251 57.2332L40.6576 57.4703L41.0994 57.3082L40.7549 56.3694ZM36.664 53.983L36.2277 53.0832L34.5398 53.9016L36.1601 54.8468L36.664 53.983ZM37.36 53.4717L36.5827 52.8425L36.5791 52.847L37.36 53.4717ZM37.6725 52.733L36.6896 52.5488L36.6873 52.5613L36.6853 52.5738L37.6725 52.733ZM37.7435 51.5967L38.7433 51.5758L38.7431 51.5681L38.7429 51.5603L37.7435 51.5967ZM37.289 39.0967L38.2883 39.0603L38.2882 39.0578L37.289 39.0967ZM38.3259 34.6933L37.4772 34.1644L37.4742 34.1692L38.3259 34.6933ZM41.6214 31.8524L41.2031 30.944L41.2008 30.9451L41.6214 31.8524ZM50.8543 31.3978L50.5635 32.3546L50.5656 32.3552L50.8543 31.3978ZM53.8799 33.0029L53.2269 33.7604L53.232 33.7647L53.8799 33.0029ZM55.7833 35.5882L54.8663 35.9872L54.8709 35.9975L55.7833 35.5882ZM56.6072 39.0967L56.6533 40.0956L57.6777 40.0483L57.6046 39.0254L56.6072 39.0967ZM49.2208 39.4376L48.2232 39.5069L48.2909 40.4816L49.2669 40.4365L49.2208 39.4376ZM47.9708 37.1791L48.3023 36.2356L48.3023 36.2356L47.9708 37.1791ZM45.8401 37.2359L46.4024 38.0628L46.4024 38.0628L45.8401 37.2359ZM56.7208 59.3467H34.3344V61.3467H56.7208V59.3467ZM35.3344 60.3467V53.983H33.3344V60.3467H35.3344ZM34.3344 54.983H56.7208V52.983H34.3344V54.983ZM55.7208 53.983V60.3467H57.7208V53.983H55.7208ZM51.4367 47.5853H34.2776V49.5853H51.4367V47.5853ZM35.2776 48.5853V42.6762H33.2776V48.5853H35.2776ZM34.2776 43.6762H51.4367V41.6762H34.2776V43.6762ZM50.4367 42.6762V48.5853H52.4367V42.6762H50.4367ZM44.1874 39.1347L44.642 51.0666L46.6405 50.9904L46.186 39.0586L44.1874 39.1347ZM44.6418 51.0632C44.6822 52.2252 44.3778 53.0019 43.8503 53.536L45.2731 54.9415C46.2796 53.9225 46.695 52.5591 46.6406 50.9938L44.6418 51.0632ZM43.8502 53.536C43.2469 54.1469 42.142 54.7951 40.4103 55.4306L41.0994 57.3082C42.9284 56.6369 44.3613 55.8647 45.2732 54.9414L43.8502 53.536ZM41.2588 55.5056L37.1678 53.1193L36.1601 54.8468L40.251 57.2332L41.2588 55.5056ZM37.1002 54.8829C37.4929 54.6925 37.8652 54.441 38.1409 54.0964L36.5791 52.847C36.5518 52.8812 36.46 52.9706 36.2277 53.0832L37.1002 54.8829ZM38.1372 54.1009C38.4247 53.7457 38.5892 53.3299 38.6597 52.8923L36.6853 52.5738C36.6611 52.7233 36.6172 52.7999 36.5828 52.8425L38.1372 54.1009ZM38.6554 52.9173C38.7293 52.5231 38.7536 52.07 38.7433 51.5758L36.7437 51.6175C36.7524 52.0324 36.7293 52.337 36.6896 52.5488L38.6554 52.9173ZM38.7429 51.5603L38.2883 39.0603L36.2896 39.133L36.7442 51.633L38.7429 51.5603ZM38.2882 39.0578C38.2282 37.515 38.5415 36.251 39.1776 35.2174L37.4742 34.1692C36.5952 35.5977 36.2172 37.2693 36.2897 39.1355L38.2882 39.0578ZM39.1746 35.2221C39.8299 34.1704 40.7726 33.3481 42.0419 32.7596L41.2008 30.9451C39.6103 31.6824 38.356 32.754 37.4772 34.1644L39.1746 35.2221ZM42.0397 32.7607C43.3206 32.1708 44.8716 31.858 46.7208 31.858V29.858C44.6495 29.858 42.8009 30.2082 41.2031 30.9441L42.0397 32.7607ZM46.7208 31.858C48.2195 31.858 49.4955 32.0299 50.5635 32.3546L51.1452 30.441C49.8457 30.046 48.366 29.858 46.7208 29.858V31.858ZM50.5656 32.3552C51.6442 32.6805 52.5235 33.1539 53.2269 33.7603L54.5328 32.2455C53.5885 31.4315 52.4508 30.8348 51.1431 30.4404L50.5656 32.3552ZM53.232 33.7647C53.936 34.3635 54.4802 35.0998 54.8664 35.9872L56.7002 35.1891C56.1963 34.0311 55.4715 33.0439 54.5278 32.2412L53.232 33.7647ZM54.8709 35.9975C55.2691 36.8852 55.5217 37.9366 55.6097 39.1679L57.6046 39.0254C57.5032 37.6053 57.2066 36.3177 56.6957 35.1789L54.8709 35.9975ZM56.5611 38.0977L49.1747 38.4387L49.2669 40.4365L56.6533 40.0956L56.5611 38.0977ZM50.2184 39.3683C50.1663 38.6181 50.0152 37.9129 49.6723 37.3614L47.9738 38.4172C48.0665 38.5664 48.1806 38.8934 48.2232 39.5069L50.2184 39.3683ZM49.6723 37.3614C49.3485 36.8403 48.8915 36.4426 48.3023 36.2356L47.6393 38.1225C47.7508 38.1617 47.8621 38.2375 47.9738 38.4172L49.6723 37.3614ZM48.3023 36.2356C47.8266 36.0685 47.3138 35.9944 46.7776 35.9944V37.9944C47.1316 37.9944 47.4142 38.0434 47.6393 38.1225L48.3023 36.2356ZM46.7776 35.9944C46.2585 35.9944 45.7299 36.1015 45.2778 36.409L46.4024 38.0628C46.4238 38.0483 46.5202 37.9944 46.7776 37.9944V35.9944ZM45.2778 36.409C44.8332 36.7113 44.5427 37.1421 44.3801 37.6299L46.2774 38.2623C46.3232 38.1251 46.3735 38.0824 46.4024 38.0628L45.2778 36.409ZM44.3801 37.6299C44.2288 38.0836 44.1759 38.5889 44.1869 39.1175L46.1865 39.0758C46.1786 38.6954 46.2203 38.4336 46.2774 38.2623L44.3801 37.6299Z" fill="#0E1D34"/>
</svg>
