<svg width="201" height="113" viewBox="0 0 201 113" fill="none" xmlns="http://www.w3.org/2000/svg">
<path d="M197 61L155 8.5L161 2.5L197 61Z" fill="white"/>
<path d="M85.5 68L45 30.5L84.5 49L160 0L85.5 68Z" fill="white"/>
<path d="M42.5 32.5L0 83.5L50.5 39.5L42.5 32.5Z" fill="white"/>
<path d="M83.5 8.5L86.7555 18.5193L97.2903 18.5193L88.7674 24.7115L92.0229 34.7307L83.5 28.5385L74.9771 34.7307L78.2326 24.7115L69.7097 18.5193L80.2445 18.5193L83.5 8.5Z" fill="white"/>
<rect x="137" y="39.5" width="9" height="9" fill="white"/>
<rect x="150" y="39.5" width="9" height="9" fill="white"/>
<rect x="137" y="52.5" width="9" height="9" fill="white"/>
<rect x="150" y="52.5" width="9" height="9" fill="white"/>
<rect x="41" y="59.5" width="7" height="7" fill="white"/>
<rect x="51" y="59.5" width="7" height="7" fill="white"/>
<rect x="41" y="69.5" width="7" height="7" fill="white"/>
<rect x="51" y="69.5" width="7" height="7" fill="white"/>
<path d="M79.2195 86.7028C61.8483 90.7829 28.6952 87.9489 21.1596 86.0101C36.8361 91.5391 61.8093 95.2203 74.7688 93.4342C86.6977 91.7901 119.357 83.3036 148.919 84.9332C175.662 86.4074 189.072 88.5448 199.302 93.8572C191.935 89.4567 182.815 86.1125 156.193 80.5355C129.571 74.9586 98.5842 82.1545 79.2195 86.7028Z" fill="white"/>
</svg>
